<?xml version="1.0" encoding="utf-8"?>
<!-- Generator: Adobe Illustrator 27.2.0, SVG Export Plug-In . SVG Version: 6.00 Build 0)  -->
<svg version="1.1" id="Layer_1" xmlns="http://www.w3.org/2000/svg" xmlns:xlink="http://www.w3.org/1999/xlink" x="0px" y="0px"
	 viewBox="0 0 3000 1500" style="enable-background:new 0 0 3000 1500;" xml:space="preserve">
<style type="text/css">
	.st0{clip-path:url(#SVGID_00000093867296633037933770000008374850839295890352_);}
	.st1{fill:url(#SVGID_00000033345961068019558860000018104478118901198733_);}
	.st2{fill:url(#SVGID_00000101796813150714910690000012173941936393652643_);}
	.st3{fill:url(#SVGID_00000041998424674256562970000004091137479083624630_);}
	.st4{fill:url(#SVGID_00000160150958658817405200000012958049794123575684_);}
	.st5{fill:url(#SVGID_00000142855506500007017060000011955052708172814223_);}
	.st6{fill:url(#SVGID_00000134240733126824197090000006366698982075334591_);}
	.st7{fill:url(#SVGID_00000061462464232918807870000013023251740812615103_);}
	.st8{fill:url(#SVGID_00000085929610352896353470000016983171982847637439_);}
	.st9{fill:url(#SVGID_00000116914107735367135570000010790662261994449820_);}
	.st10{fill:url(#SVGID_00000138531644931577373720000018037169830859712446_);}
	.st11{fill:url(#SVGID_00000003818568103800384030000003935946902493914022_);}
	.st12{fill:url(#SVGID_00000094618660317447137670000004145701312444330651_);}
	.st13{fill:url(#SVGID_00000035521969407054914320000010234960222468187284_);}
	.st14{fill:url(#SVGID_00000055679846078722006530000016688632246991572144_);}
	.st15{fill:url(#SVGID_00000008117411677483696840000011084721282134805382_);}
	.st16{fill:url(#SVGID_00000110458376827792679790000003683092156984853397_);}
	.st17{fill:url(#SVGID_00000109715640605665773920000003702947859437630394_);}
	.st18{fill:url(#SVGID_00000093870533422290167290000012206051211207167111_);}
	.st19{fill:url(#SVGID_00000118365524288647518210000015790621253868045746_);}
	.st20{fill:url(#SVGID_00000168829610845257070780000002267769912090279814_);}
	.st21{fill:url(#SVGID_00000100353360858852126060000016442471470342312841_);}
	.st22{fill:url(#SVGID_00000025432610190431114200000002432586308633812920_);}
	.st23{fill:url(#SVGID_00000058571410334350583090000013674667705243099833_);}
	.st24{fill:url(#SVGID_00000036213216437404899230000017593013345323540143_);}
	.st25{fill:url(#SVGID_00000073682501699888944460000002717611056000469682_);}
	.st26{fill:url(#SVGID_00000008846634356819484380000012424914350960572862_);}
	.st27{fill:url(#SVGID_00000031202736859490491390000008843682623718582204_);}
	.st28{fill:url(#SVGID_00000072240182763803300030000000209029084477774749_);}
	.st29{fill:url(#SVGID_00000157296327224121820680000002937073325548148357_);}
	.st30{fill:url(#SVGID_00000016036155571756949570000012135333273216771773_);}
	.st31{fill:url(#SVGID_00000030472197109256484000000014151839769457731989_);}
	.st32{fill:url(#SVGID_00000181070763588464062000000002539385854582370458_);}
</style>
<g>
	<g>
		<defs>
			<rect id="SVGID_1_" x="0.03" y="0.03" width="2999.95" height="1499.95"/>
		</defs>
		<use xlink:href="#SVGID_1_"  style="overflow:visible;fill:#141B2D;"/>
		<clipPath id="SVGID_00000117674746294065004620000010480041129330130861_">
			<use xlink:href="#SVGID_1_"  style="overflow:visible;"/>
		</clipPath>
		<g style="clip-path:url(#SVGID_00000117674746294065004620000010480041129330130861_);">
			
				<radialGradient id="SVGID_00000094591646917683611110000008600648208386109855_" cx="1512.5276" cy="612.9089" r="1182.9392" gradientUnits="userSpaceOnUse">
				<stop  offset="0" style="stop-color:#DB1114"/>
				<stop  offset="0.1501" style="stop-color:#D71114"/>
				<stop  offset="0.2926" style="stop-color:#CC1216"/>
				<stop  offset="0.4321" style="stop-color:#B91318"/>
				<stop  offset="0.5698" style="stop-color:#9E141C"/>
				<stop  offset="0.7061" style="stop-color:#7B1620"/>
				<stop  offset="0.8413" style="stop-color:#501825"/>
				<stop  offset="0.9734" style="stop-color:#1F1A2C"/>
				<stop  offset="1" style="stop-color:#141B2D"/>
			</radialGradient>
			<path style="fill:url(#SVGID_00000094591646917683611110000008600648208386109855_);" d="M2978.24,231.09
				c-78.79,54.74-193.79,30.85-315.55,5.56c-91.99-19.11-187.12-38.86-276.44-27.99c-48.45,5.9-90.3,20.13-127.94,43.52
				c-41.95,26.06-78.79,64.29-109.5,113.64c-141.8,227.87-361.36,190.95-537.78,161.28c-63.02-10.6-122.54-20.6-168.65-15.95
				c-51.49,5.2-82.15,28.02-96.47,71.82c-51.3,156.88-127.9,311.68-210.15,424.69c-86.42,118.74-172.8,184.07-243.33,184.07
				c-0.23,0-0.47,0-0.7,0c-31.11-0.19-59.2-13.05-83.48-38.21c-26.09-27.04-48.03-68.54-65.22-123.35
				c-59.26-189.03-139.5-323.44-245.32-410.91c-92.12-76.15-190.63-106.17-277.55-132.65C119.19,455.83,29.71,428.55-24.14,337.68
				v7.78c54.78,87.56,143.4,114.58,243.15,144.97c172.72,52.63,387.67,118.14,520.22,540.93c17.37,55.41,39.63,97.44,66.15,124.93
				c25.06,25.97,54.1,39.23,86.33,39.43c0.25,0,0.49,0,0.74,0c36.93,0,77.63-16.96,120.97-50.42
				c41.08-31.72,83.34-77.24,125.59-135.29c41.1-56.48,80.32-122.17,116.56-195.26c36.58-73.78,68.26-151.34,94.16-230.54
				c30.06-91.94,131.82-74.83,260.65-53.17c87.89,14.78,187.5,31.53,283,15.86c110.51-18.13,195.17-76.67,258.83-178.97
				c128.52-206.52,331.02-164.47,509.67-127.36c122.62,25.47,238.44,49.52,318.64-6.19c15.8-10.98,29.82-24.79,42.13-41.54v-6.9
				C3009.85,204.39,2995.07,219.4,2978.24,231.09z"/>
			
				<radialGradient id="SVGID_00000108271046291180792210000000389527312423864986_" cx="1512.1041" cy="611.6693" r="1180.876" gradientUnits="userSpaceOnUse">
				<stop  offset="0" style="stop-color:#D8171B"/>
				<stop  offset="0.1518" style="stop-color:#D4171B"/>
				<stop  offset="0.2953" style="stop-color:#C9171C"/>
				<stop  offset="0.4357" style="stop-color:#B6181E"/>
				<stop  offset="0.574" style="stop-color:#9B1821"/>
				<stop  offset="0.7108" style="stop-color:#781924"/>
				<stop  offset="0.8466" style="stop-color:#4E1A28"/>
				<stop  offset="0.9791" style="stop-color:#1C1B2C"/>
				<stop  offset="1" style="stop-color:#141B2D"/>
			</radialGradient>
			<path style="fill:url(#SVGID_00000108271046291180792210000000389527312423864986_);" d="M2979.23,250.04
				c-82.04,53.64-198.04,27.14-320.86-0.91c-91.05-20.8-185.2-42.3-273.53-33.67c-47.83,4.67-89.25,17.63-126.61,39.6
				c-41.62,24.48-78.38,60.96-109.26,108.43c-11.09,17.05-23.25,33.32-37.16,49.73c-148.75,176.5-347.42,148-507.05,125.09
				c-27.32-3.92-53.12-7.62-77.93-10.27c-48.4-5.21-81.7-3.95-107.96,4.09c-31.44,9.62-52.32,29.5-63.84,60.76
				c-96.94,263.01-253.76,485.52-390.23,553.68c-44.53,22.27-84.61,26.31-119.12,12.01c-43.74-18.12-78.72-65.76-103.97-141.59
				c-24.41-72.41-51.75-134.5-83.58-189.81c-29-50.4-61.02-93.87-97.88-132.89C446,573.36,320.79,540.63,210.33,511.76
				C114.9,486.81,29.75,464.54-24.14,388.28v3.74c18.3,25.29,41.05,45.83,69.01,62.63c46.93,28.19,104.25,43.17,164.95,59.04
				c110.21,28.81,235.12,61.46,348.97,181.97c75.83,80.27,135.04,185.58,181.02,321.96c25.44,76.41,60.8,124.45,105.1,142.81
				c13.72,5.69,28.29,8.53,43.65,8.53c23.89,0,49.69-6.87,77.12-20.59c136.9-68.37,294.11-291.32,391.21-554.77
				c11.29-30.64,31.75-50.12,62.55-59.54c26-7.96,59.04-9.19,107.17-4.01c24.78,2.65,50.56,6.35,77.86,10.26
				c57.43,8.24,120.33,17.26,183.78,17.26c25.2,0,50.5-1.42,75.55-4.89c101.36-14,182.98-59.2,249.53-138.16
				c13.97-16.47,26.17-32.8,37.31-49.93c129.9-199.71,330.39-153.91,507.27-113.51c71.12,16.25,139.95,31.97,201.37,31.97
				c45.01,0,86.04-8.45,121.04-31.34c15.69-10.26,29.78-23.18,42.33-38.85v-3.22C3009.85,226.04,2995.39,239.47,2979.23,250.04z"/>
			
				<radialGradient id="SVGID_00000038373493034435712440000016386129624400043392_" cx="1511.6958" cy="610.8758" r="1179.8933" gradientUnits="userSpaceOnUse">
				<stop  offset="0" style="stop-color:#D61E21"/>
				<stop  offset="0.1531" style="stop-color:#D21E21"/>
				<stop  offset="0.2974" style="stop-color:#C71E22"/>
				<stop  offset="0.4382" style="stop-color:#B41D23"/>
				<stop  offset="0.5769" style="stop-color:#991D25"/>
				<stop  offset="0.714" style="stop-color:#771D27"/>
				<stop  offset="0.8499" style="stop-color:#4C1C2A"/>
				<stop  offset="0.9826" style="stop-color:#1B1B2D"/>
				<stop  offset="1" style="stop-color:#141B2D"/>
			</radialGradient>
			<path style="fill:url(#SVGID_00000038373493034435712440000016386129624400043392_);" d="M2979.62,268.28
				c-85.07,52.23-201.92,23.09-325.63-7.76c-90.16-22.48-183.38-45.73-270.84-39.29c-47.34,3.48-88.43,15.22-125.61,35.86
				c-41.4,22.99-78.15,57.83-109.25,103.55c-10.48,15.41-22.62,30.96-38.22,48.94c-158.36,182.62-348.7,159.49-516.64,139.08
				c-19.61-2.38-38.13-4.63-56.57-6.56c-48.55-5.15-81.96-4.15-108.33,3.24c-31.7,8.89-53.07,27.59-65.34,57.16
				c-49.72,119.84-113.1,231.66-183.3,323.38c-71.17,92.99-145.44,160.07-214.79,193.99c-46.88,22.99-88.45,27.43-123.56,13.21
				c-41.65-16.87-75.37-60.47-100.21-129.58c-45.6-126.83-104.58-222.57-185.62-301.29C437.67,587.55,311.65,560.05,200.47,535.8
				c-93.53-20.4-172.4-37.62-224.61-100.52v2.8c16.43,19.24,36.16,35.1,59.66,48.13c46.5,25.79,103.83,38.3,164.53,51.54
				c110.92,24.2,236.65,51.62,354.28,165.9c80.81,78.5,139.63,174,185.13,300.53c25.05,69.67,59.15,113.66,101.35,130.76
				c13.64,5.52,28.22,8.28,43.68,8.28c24.97,0,52.23-7.19,81.51-21.55c69.62-34.05,144.14-101.33,215.49-194.57
				c70.3-91.86,133.77-203.84,183.56-323.83c12.02-28.97,32.97-47.29,64.04-56c26.11-7.32,59.29-8.31,107.58-3.18
				c18.43,1.92,36.94,4.17,56.54,6.56c55.23,6.71,111.68,13.57,168.84,13.57c30.82,0,61.85-2,92.99-7.08
				c101.71-16.61,185.63-64.45,256.56-146.25c15.64-18.04,27.83-33.65,38.36-49.13c130.77-192.26,320.29-145,503.56-99.3
				c74.51,18.58,146.53,36.54,210.77,36.54c42.77,0,82.1-7.97,116.39-29.02c15.37-9.44,29.35-21.29,41.99-35.62v-3.05
				C3009.75,246.27,2995.42,258.57,2979.62,268.28z"/>
			
				<radialGradient id="SVGID_00000078763171992569324510000007779194570959030411_" cx="1511.2905" cy="610.2363" r="1179.2211" gradientUnits="userSpaceOnUse">
				<stop  offset="0" style="stop-color:#D32428"/>
				<stop  offset="0.1548" style="stop-color:#CF2428"/>
				<stop  offset="0.3002" style="stop-color:#C42328"/>
				<stop  offset="0.4419" style="stop-color:#B12229"/>
				<stop  offset="0.5812" style="stop-color:#96212A"/>
				<stop  offset="0.719" style="stop-color:#74202A"/>
				<stop  offset="0.8554" style="stop-color:#4A1E2C"/>
				<stop  offset="0.9885" style="stop-color:#191B2D"/>
				<stop  offset="1" style="stop-color:#141B2D"/>
			</radialGradient>
			<path style="fill:url(#SVGID_00000078763171992569324510000007779194570959030411_);" d="M2919.67,308.59
				c-78.62,15.07-171.74-10.12-270.32-36.79c-89.24-24.14-181.5-49.09-268.06-44.83c-46.82,2.31-87.56,12.83-124.54,32.16
				c-41.72,21.8-77.42,54.08-109.15,98.66c-12.48,17.54-26.25,33.51-39.28,48.16c-170.36,191.58-363.16,171.18-533.28,153.17
				c-9.43-1-18.82-1.99-28.15-2.95c-85.5-8.94-148.08-2.85-175.53,55.96c-106.29,227.7-261.84,412.03-405.95,481.07
				c-50.17,24.12-92.17,28.89-128.39,14.57c-39.53-15.63-71.86-55.24-96.07-117.74C695.61,873,637.09,786.69,551.19,710.15
				c-54.33-48.41-114.78-83.96-184.81-108.7c-61.19-21.61-122.24-32.3-176.09-41.72c-88.06-15.41-163.06-28.55-214.43-80.28v2.61
				c14.32,14.08,30.96,25.85,50.18,35.62c46.01,23.39,103.27,33.41,163.9,44.03c111.78,19.57,238.48,41.74,359.92,149.94
				c85.65,76.31,144.01,162.39,189.23,279.11c24.42,63.04,57.13,103.03,97.2,118.87c13.79,5.45,28.4,8.19,43.94,8.19
				c25.88,0,54.37-7.58,86.05-22.82c71.34-34.17,146.73-96.92,218.03-181.45c71.14-84.34,136.45-188.28,188.87-300.57
				c26.95-57.73,88.85-63.66,173.51-54.81c9.33,0.95,18.72,1.95,28.15,2.95c87.44,9.26,177.86,18.83,268.49,2.12
				c102.88-18.96,190.05-69.97,266.5-155.95c13.06-14.69,26.87-30.71,39.41-48.33c131.5-184.79,318.63-134.17,499.59-85.22
				c78.22,21.16,152.99,41.38,219.98,41.38c17.64,0,34.76-1.4,51.24-4.56c40.87-7.83,74.49-25.81,102.61-54.88v-2.64
				C2994.54,282.54,2960.49,300.76,2919.67,308.59z"/>
			
				<radialGradient id="SVGID_00000175291252183071453200000013838517702754623649_" cx="1510.8823" cy="609.572" r="1178.8358" gradientUnits="userSpaceOnUse">
				<stop  offset="0" style="stop-color:#D02B2F"/>
				<stop  offset="0.1566" style="stop-color:#CC2B2F"/>
				<stop  offset="0.3031" style="stop-color:#C12A2F"/>
				<stop  offset="0.4457" style="stop-color:#AE282F"/>
				<stop  offset="0.5857" style="stop-color:#93262E"/>
				<stop  offset="0.724" style="stop-color:#71232E"/>
				<stop  offset="0.8611" style="stop-color:#471F2E"/>
				<stop  offset="0.9946" style="stop-color:#161B2D"/>
				<stop  offset="1" style="stop-color:#141B2D"/>
			</radialGradient>
			<path style="fill:url(#SVGID_00000175291252183071453200000013838517702754623649_);" d="M2916.75,326.09
				c-80.32,12.89-173.58-14.32-272.32-43.14c-88.29-25.77-179.6-52.41-265.18-50.28c-46.29,1.15-86.65,10.47-123.4,28.48
				c-41.43,20.31-77.07,50.98-108.95,93.78c-12.71,17.07-26.76,32.47-40.34,47.37c-186.2,204.3-370.97,185.81-549.66,167.92
				c-85.6-8.82-148.52-3.43-177.38,51.51c-111.04,211.34-261.87,373.45-413.81,444.77c-52.97,24.98-96.59,30.26-133.35,16.15
				c-37.91-14.55-67.93-49.26-91.8-106.12c-24.19-57.63-52.4-106.79-86.25-150.29c-29.5-37.91-63.72-72.29-107.67-108.18
				c-56.03-45.75-117.89-78.55-189.11-100.27c-62.16-18.96-123.6-27.07-177.8-34.23c-82.61-10.91-153.65-20.3-203.89-62.06v2.49
				c11.98,9.75,25.45,18.06,40.58,25.04c45.46,20.99,99.96,28.19,163.05,36.52c112.79,14.89,240.63,31.77,365.9,134.06
				c90.84,74.17,148.66,151.24,193.34,257.69c24.08,57.39,54.48,92.46,92.93,107.21c13.57,5.21,28.04,7.82,43.54,7.82
				c27.1,0,57.35-7.98,91.38-24.03c73.42-34.46,149.68-92.66,220.54-168.31c72.22-77.09,139.37-173,194.19-277.34
				c28.34-53.94,90.62-59.18,175.41-50.45c102.48,10.26,187.91,16.63,276.3-1.98c49.33-10.38,94.35-27.68,137.65-52.88
				c48.38-28.16,93.32-65.35,137.39-113.7c13.61-14.94,27.69-30.38,40.46-47.53c132.07-177.28,316.75-123.39,495.36-71.26
				c80.49,23.49,159.11,46.44,229.6,46.44c55.91,0,106.69-14.46,149.18-54.55v-2.43C2993.24,302.47,2958.23,319.43,2916.75,326.09z"
				/>
			
				<radialGradient id="SVGID_00000183233869789926507660000001279722288241726113_" cx="1510.4709" cy="608.9835" r="1178.7434" gradientUnits="userSpaceOnUse">
				<stop  offset="0" style="stop-color:#CD3136"/>
				<stop  offset="0.1584" style="stop-color:#C93136"/>
				<stop  offset="0.3061" style="stop-color:#BE2F35"/>
				<stop  offset="0.4495" style="stop-color:#AB2D34"/>
				<stop  offset="0.5903" style="stop-color:#912A33"/>
				<stop  offset="0.7292" style="stop-color:#6E2631"/>
				<stop  offset="0.8648" style="stop-color:#45212F"/>
				<stop  offset="1" style="stop-color:#141B2D"/>
			</radialGradient>
			<path style="fill:url(#SVGID_00000183233869789926507660000001279722288241726113_);" d="M2639.25,293.95
				c-87.27-27.35-177.49-55.63-262.06-55.63h-0.13c-45.72,0.02-85.69,8.15-122.18,24.86c-41.11,18.82-76.65,47.91-108.64,88.91
				c-11.23,14.39-23.89,27.9-36.14,40.97c-1.75,1.87-3.51,3.74-5.26,5.62c-188.56,201.93-355.16,203.53-537.89,185.62
				c-49.05-4.98-82.8-4.74-109.44,0.76c-32.5,6.72-55.33,21.86-69.8,46.29c-112.55,190.09-262.3,335.15-421.68,408.47
				c-55.94,25.87-101.22,31.76-138.44,17.99c-35.7-13.21-64.29-44.2-87.4-94.75C688.87,850.82,623.9,787.13,542.13,726.02
				c-57.76-43.16-121.08-73.23-193.58-91.92c-63.2-16.29-125.1-21.81-179.71-26.68c-77.14-6.88-144.12-12.85-192.98-45.74v2.5
				c49.07,32.41,115.91,38.38,192.8,45.23c108.3,9.65,243.08,21.67,372.27,118.21c81.52,60.92,146.3,124.42,197.44,236.27
				c23.35,51.06,52.3,82.39,88.53,95.79c13.22,4.89,27.43,7.34,42.74,7.34c28.39,0,60.56-8.44,97.23-25.4
				c159.74-73.48,309.8-218.83,422.56-409.27c14.16-23.91,36.56-38.75,68.48-45.35c26.42-5.46,59.99-5.69,108.83-0.73
				c100.81,9.88,185.44,11.71,270.74-11.52c46.52-12.67,89.9-31.98,132.61-59.04c46.44-29.43,90.99-67.27,136.2-115.68
				c1.75-1.88,3.5-3.75,5.26-5.62c12.28-13.1,24.97-26.64,36.25-41.11c132.48-169.78,314.66-112.68,490.85-57.46
				c84.89,26.6,165.73,51.95,239.02,51.94c12.31,0,24.41-0.72,36.28-2.26c42.31-5.51,77.93-21.13,108.7-47.7v-2.7
				C2922.69,382.77,2783.95,339.3,2639.25,293.95z"/>
			
				<radialGradient id="SVGID_00000000939245110289477390000011059431954881891511_" cx="1510.0627" cy="608.5114" r="1178.9413" gradientUnits="userSpaceOnUse">
				<stop  offset="0" style="stop-color:#CB383C"/>
				<stop  offset="0.1598" style="stop-color:#C7373C"/>
				<stop  offset="0.3082" style="stop-color:#BC363B"/>
				<stop  offset="0.4522" style="stop-color:#A93339"/>
				<stop  offset="0.5934" style="stop-color:#8F2E37"/>
				<stop  offset="0.7327" style="stop-color:#6D2934"/>
				<stop  offset="0.8684" style="stop-color:#432331"/>
				<stop  offset="1" style="stop-color:#141B2D"/>
			</radialGradient>
			<path style="fill:url(#SVGID_00000000939245110289477390000011059431954881891511_);" d="M2910.47,360.98
				c-83.86,8.42-177.52-22.97-276.68-56.21c-174.35-58.45-354.64-118.88-488.24,44.46c-10.21,12.48-21.71,24.35-32.83,35.83
				c-3.21,3.31-6.42,6.63-9.63,9.98c-185.97,194.45-333.74,221.79-526.12,203.32c-49.25-4.92-83.12-4.94-109.82-0.05
				c-32.78,6-56.09,19.95-71.26,42.65c-113.34,169.53-257.86,294.75-429.55,372.17c-52.94,24.02-95.81,31.8-131.04,23.76
				c-39.27-8.96-70.51-37.52-95.49-87.33c-49.47-98.63-111.6-153.74-202.21-215.61c-59.53-40.65-124.37-68.01-198.24-83.64
				c-64.31-13.61-126.75-16.5-181.84-19.05c-62.29-2.89-116.09-5.38-159.98-21.51c-7.67-2.82-14.89-6.03-21.68-9.64v2.21
				c47.37,24.7,110.09,27.62,181.57,30.93c109.53,5.08,245.85,11.39,379.04,102.35c90.33,61.68,152.27,116.62,201.55,214.86
				c25.27,50.37,56.94,79.28,96.83,88.38c9.07,2.07,18.62,3.1,28.71,3.1c29.61,0,63.81-8.94,103.6-27
				c172.03-77.58,316.83-203.04,430.38-372.88c31.12-46.55,91.65-50.47,179.22-41.72c34.22,3.29,65.41,4.96,94.41,4.96
				c65.06,0,118.99-8.44,170.79-26.02c88.57-30.07,172-88.17,262.56-182.86c3.2-3.34,6.41-6.66,9.62-9.97
				c11.15-11.51,22.69-23.41,32.95-35.95c132.73-162.27,312.35-102.06,486.06-43.83c88.24,29.58,172.12,57.7,248.83,57.7
				c9.67,0,19.25-0.45,28.69-1.4c43.14-4.34,79.84-18.82,111.98-44.23v-2.25C2990.57,342.1,2953.48,356.66,2910.47,360.98z"/>
			
				<radialGradient id="SVGID_00000034053638535566551830000007369231876582242189_" cx="1509.6332" cy="608.4796" r="1180.214" gradientUnits="userSpaceOnUse">
				<stop  offset="0" style="stop-color:#C83E43"/>
				<stop  offset="0.1617" style="stop-color:#C43D43"/>
				<stop  offset="0.3113" style="stop-color:#B93B41"/>
				<stop  offset="0.4561" style="stop-color:#A6373F"/>
				<stop  offset="0.5981" style="stop-color:#8C323C"/>
				<stop  offset="0.738" style="stop-color:#6A2C38"/>
				<stop  offset="0.8743" style="stop-color:#412432"/>
				<stop  offset="1" style="stop-color:#141B2D"/>
			</radialGradient>
			<path style="fill:url(#SVGID_00000034053638535566551830000007369231876582242189_);" d="M2907.01,377.36
				c-85.49,6.11-179.31-27.41-278.63-62.89c-172.13-61.5-350.12-125.09-484.28,31.26c-9.42,10.98-19.56,21.07-30.31,31.75
				c-4.32,4.3-8.79,8.75-13.17,13.22c-183,186.89-307.78,240.52-513.54,220.72c-88.98-8.57-150.77-5.11-183.81,38.54
				c-143.59,189.63-308.98,278.94-437.03,335.57c-54.47,24.25-96.15,32.76-131.19,26.79c-38.78-6.61-69.78-31.71-94.75-76.73
				c-51.8-93.38-118.34-139.53-206.7-194.54c-138.06-85.96-276.55-86.46-387.82-86.86c-61.71-0.22-115.01-0.41-158-14.17
				c-4.11-1.31-8.07-2.75-11.91-4.3v4.3c3.46,1.36,7.02,2.64,10.69,3.81c43.57,13.94,97.16,14.14,159.2,14.36
				c110.77,0.4,248.63,0.9,385.73,86.25c87.84,54.69,153.98,100.55,205.31,193.09c25.6,46.15,57.52,71.91,97.58,78.74
				c7.38,1.26,15.04,1.89,23.02,1.89c30.83,0,66.61-9.45,110.46-28.97c89.37-39.52,161.84-80.44,228.06-128.78
				c79.77-58.23,148.64-126.28,210.54-208.03c31.92-42.16,92.64-45.4,180.24-36.97c51.33,4.94,95.97,5.21,136.48,0.82
				c43.68-4.74,84.13-14.98,123.66-31.33c80.47-33.28,159.62-92.3,256.64-191.39c4.36-4.46,8.82-8.89,13.14-13.18
				c10.8-10.74,21-20.89,30.52-31.99c132.37-154.26,309.04-91.14,479.9-30.1c91.7,32.76,178.71,63.86,259.25,63.85
				c7.05,0,14.06-0.24,21.01-0.74c43.97-3.14,81.79-16.43,115.35-40.56v-4.65C2989.18,360.74,2950.95,374.22,2907.01,377.36z"/>
			
				<radialGradient id="SVGID_00000016795176055453424790000017348970599629245073_" cx="1509.2401" cy="607.9512" r="1180.2565" gradientUnits="userSpaceOnUse">
				<stop  offset="0" style="stop-color:#C5454A"/>
				<stop  offset="0.1636" style="stop-color:#C14449"/>
				<stop  offset="0.3144" style="stop-color:#B64148"/>
				<stop  offset="0.4602" style="stop-color:#A33D45"/>
				<stop  offset="0.603" style="stop-color:#893740"/>
				<stop  offset="0.7435" style="stop-color:#672F3B"/>
				<stop  offset="0.8804" style="stop-color:#3E2534"/>
				<stop  offset="1" style="stop-color:#141B2D"/>
			</radialGradient>
			<path style="fill:url(#SVGID_00000016795176055453424790000017348970599629245073_);" d="M2903.53,395.68
				c-87.6,3.77-186.18-33.65-281.51-69.84c-84.19-31.96-171.25-65.01-252.62-71.06c-43.91-3.26-82.54,1.41-118.1,14.28
				c-39.97,14.47-75.01,38.83-107.11,74.46c-8.84,9.81-18.33,18.89-28.38,28.51c-5.32,5.09-10.82,10.36-16.21,15.73
				c-184.78,184.38-295.45,258.3-502.58,238.71c-35.69-3.37-76.75-6.2-110.62-1.58c-33.38,4.56-57.63,16.09-74.14,35.27
				c-135.3,157.12-281.72,228.63-445.31,299.58c-55.71,24.34-97.82,33.86-132.5,29.95c-38.95-4.4-70.17-26.35-95.43-67.13
				C687.9,840.07,622.08,802.8,530.99,751.22l-2.45-1.39c-142.12-80.48-282.32-75-394.98-70.59c-61.17,2.39-114,4.46-156.31-7.06
				c-0.47-0.13-0.93-0.27-1.39-0.4v2.08c0.29,0.08,0.57,0.17,0.87,0.25c42.6,11.59,95.57,9.52,156.91,7.12
				c112.4-4.39,252.29-9.86,393.91,70.33l2.45,1.39c90.84,51.43,156.47,88.59,207.32,170.66c25.61,41.33,57.31,63.59,96.91,68.06
				c5.09,0.57,10.33,0.86,15.75,0.86c31.9,0,69.86-10.03,117.77-30.96c74.83-32.45,154.25-68.1,230.22-115.41
				c82.33-51.26,152.92-111.68,215.8-184.7c16.18-18.79,40.02-30.1,72.9-34.59c33.66-4.6,74.58-1.78,110.16,1.59
				c50.72,4.8,95.08,4.08,135.6-2.19c41.25-6.39,80.03-18.74,118.54-37.77c70.76-34.97,143.2-92.71,250.04-199.32
				c5.37-5.36,10.87-10.62,16.18-15.7c10.08-9.64,19.59-18.75,28.48-28.61c59.49-66.03,132.62-94.85,223.58-88.09
				c81.08,6.02,168,39.02,252.06,70.93c95.52,36.26,194.3,73.76,282.31,69.97c45.01-1.94,84.02-14.19,119.03-37.41v-2.07
				C2987.74,381.49,2948.37,393.74,2903.53,395.68z"/>
			
				<radialGradient id="SVGID_00000098187319023249462570000006803351356302145460_" cx="1505.7637" cy="607.8931" r="1183.48" gradientUnits="userSpaceOnUse">
				<stop  offset="0" style="stop-color:#C34B51"/>
				<stop  offset="0.1651" style="stop-color:#BF4A50"/>
				<stop  offset="0.3166" style="stop-color:#B4474E"/>
				<stop  offset="0.4631" style="stop-color:#A2424A"/>
				<stop  offset="0.6062" style="stop-color:#873B45"/>
				<stop  offset="0.747" style="stop-color:#66313E"/>
				<stop  offset="0.8842" style="stop-color:#3D2635"/>
				<stop  offset="1" style="stop-color:#141B2D"/>
			</radialGradient>
			<path style="fill:url(#SVGID_00000098187319023249462570000006803351356302145460_);" d="M2899.8,412.92
				c-89.53,1.41-188.44-38.41-284.09-76.89c-83.09-33.42-169.01-67.98-249.23-75.97c-43.26-4.31-81.4-0.75-116.59,10.88
				c-39.53,13.06-74.33,35.87-106.39,69.73c-8.33,8.8-17.26,17.01-26.71,25.69c-6.22,5.72-12.65,11.63-18.95,17.77
				c-201.12,196.14-290.7,275-490.8,256.41c-91.57-8.51-151.45-6.45-186.59,29.23c-125.84,127.8-254.57,180.98-390.85,237.28
				c-20.33,8.4-41.36,17.09-62.34,26.01c-57.67,24.73-98.76,34.91-133.23,33c-39.37-2.18-69.69-20.29-95.41-57
				c-46.23-65.99-104.12-95.29-184.25-135.84c-9.78-4.95-19.89-10.07-30.37-15.45c-146.61-75.26-288.85-63.63-403.13-54.28
				c-56.13,4.59-105.14,8.59-145.01,1.7v2.03c40.06,6.85,89.07,2.85,145.17-1.74c114.03-9.33,255.95-20.94,402.06,54.06
				c10.49,5.38,20.6,10.5,30.38,15.45c79.87,40.42,137.57,69.63,183.51,135.21c25.74,36.74,57.45,55.67,96.94,57.85
				c2.74,0.15,5.51,0.23,8.33,0.23c33.07,0,72.39-10.48,125.79-33.39c20.97-8.92,41.99-17.6,62.32-26
				c136.48-56.38,265.39-109.63,391.52-237.72c34.58-35.11,94.01-37.09,184.98-28.64c18.6,1.73,36.33,2.61,53.36,2.61
				c73.6,0,134.13-16.46,195.26-52.1c71.75-41.83,143.1-109.31,243.76-207.48c6.27-6.12,12.69-12.02,18.9-17.73
				c9.47-8.71,18.42-16.93,26.8-25.79c59.4-62.74,131.81-88.91,221.34-79.99c79.94,7.96,165.72,42.46,248.68,75.83
				c94.23,37.9,191.59,77.07,280.32,77.07c1.51,0,3.04-0.01,4.55-0.03c46.04-0.7,86.29-11.85,122.82-34.02v-2.68
				C2985.96,400.76,2945.15,412.23,2899.8,412.92z"/>
			
				<radialGradient id="SVGID_00000130614150839753192490000014590404329203661716_" cx="1508.2986" cy="603.4582" r="1183.3157" gradientUnits="userSpaceOnUse">
				<stop  offset="0" style="stop-color:#C05257"/>
				<stop  offset="0.167" style="stop-color:#BC5156"/>
				<stop  offset="0.3198" style="stop-color:#B14D53"/>
				<stop  offset="0.4672" style="stop-color:#9F474F"/>
				<stop  offset="0.6111" style="stop-color:#853F48"/>
				<stop  offset="0.7527" style="stop-color:#633440"/>
				<stop  offset="0.8905" style="stop-color:#3A2736"/>
				<stop  offset="1" style="stop-color:#141B2D"/>
			</radialGradient>
			<path style="fill:url(#SVGID_00000130614150839753192490000014590404329203661716_);" d="M2899.43,430.1
				c-1.17,0-2.36-0.01-3.53-0.02c-91.51-1.09-190.77-43.29-286.76-84.1c-81.95-34.84-166.7-70.87-245.72-80.75
				c-42.59-5.32-80.22-2.86-115.02,7.54c-39.06,11.67-73.59,32.95-105.57,65.05c-7.89,7.92-16.32,15.35-25.23,23.22
				c-7.05,6.22-14.35,12.65-21.48,19.46c-24.43,23.3-46.65,44.96-68.14,65.91c-153.42,149.59-230.42,224.67-410.9,208.2
				c-38.04-3.47-77.88-6.26-111.47-3.16c-34.49,3.18-58.94,12.06-76.94,27.93c-112.69,99.37-222.4,138.79-338.55,180.53
				c-39.71,14.27-80.76,29.02-122.54,46.46c-59.02,24.85-100.34,35.96-133.97,36.03c-0.11,0-0.21,0-0.32,0
				c-39.14,0-69.35-14.9-95.06-46.85c-41.7-51.84-92.28-73.97-162.28-104.61c-17.84-7.81-36.29-15.88-56.46-25.23
				c-151.33-70.14-295.75-52.15-411.79-37.7c-50.43,6.28-94.94,11.82-131.82,9.14v1.96c37.15,2.72,81.71-2.83,132.06-9.11
				c115.79-14.42,259.9-32.37,410.7,37.53c20.19,9.36,38.65,17.44,56.5,25.25c69.75,30.52,120.14,52.57,161.53,104.03
				c26.12,32.47,56.82,47.6,96.62,47.6c0.11,0,0.22,0,0.33,0c33.91-0.07,75.47-11.23,134.74-36.19
				c41.72-17.42,82.76-32.17,122.44-46.43c116.34-41.81,226.22-81.29,339.2-180.92c39.24-34.6,110.8-31.23,186.91-24.28
				c44.7,4.08,83.84,2.49,119.65-4.86c33.94-6.97,65.95-19.38,97.85-37.95c61.48-35.79,120.39-93.23,194.97-165.95
				c21.48-20.94,43.69-42.6,68.12-65.89c7.11-6.78,14.39-13.2,21.43-19.41c8.94-7.89,17.39-15.34,25.33-23.31
				c59.24-59.47,130.84-83.03,218.93-72.02c78.75,9.84,163.36,45.82,245.19,80.61c96.17,40.89,195.62,83.17,287.52,84.26
				c1.25,0.02,2.5,0.02,3.74,0.02c45.6,0,85.96-10.05,123.04-30.64v-2.6C2985.39,419.77,2944.45,430.1,2899.43,430.1z"/>
			
				<radialGradient id="SVGID_00000117662039972581454960000001908429958514258080_" cx="1508" cy="593.686" r="1186.4136" gradientUnits="userSpaceOnUse">
				<stop  offset="0" style="stop-color:#BD585E"/>
				<stop  offset="0.169" style="stop-color:#B9575D"/>
				<stop  offset="0.3231" style="stop-color:#AE535A"/>
				<stop  offset="0.4714" style="stop-color:#9C4C54"/>
				<stop  offset="0.6163" style="stop-color:#82434D"/>
				<stop  offset="0.7585" style="stop-color:#603643"/>
				<stop  offset="0.8968" style="stop-color:#372837"/>
				<stop  offset="1" style="stop-color:#141B2D"/>
			</radialGradient>
			<path style="fill:url(#SVGID_00000117662039972581454960000001908429958514258080_);" d="M2891.8,447.15
				c-93.54-3.61-193.17-48.29-289.52-91.49c-80.78-36.22-164.32-73.68-242.11-85.4c-41.91-6.31-78.99-4.92-113.38,4.28
				c-38.56,10.31-72.79,30.08-104.65,60.44c-7.49,7.14-15.45,13.86-23.87,20.98c-7.85,6.64-15.97,13.5-23.91,20.91
				c-44.06,41.09-81.47,79.33-114.47,113.06c-117.99,120.61-189.22,193.41-352.79,178.74c-79.97-7.17-149.49-10.6-190.23,20.32
				c-104.3,79.13-201.77,107.09-304.97,136.7c-52.83,15.15-107.45,30.82-164.02,54c-108.43,44.82-177.21,58.47-230.08,2.35
				c-37.52-39.83-81.45-55.68-142.26-77.63c-23.79-8.59-50.75-18.32-80.6-30.75c-156.29-65.11-303.05-40.53-420.97-20.79
				c-44.51,7.45-84.31,14.11-118.1,14.68v2.04c33.95-0.6,73.85-7.28,118.44-14.75c117.67-19.7,264.11-44.22,419.87,20.66
				c29.89,12.45,56.88,22.19,80.69,30.79c60.54,21.85,104.28,37.64,141.48,77.12c24.82,26.35,53,37.58,86.93,37.58
				c39.43,0,86.65-15.18,145.37-39.45c56.46-23.14,111.03-38.79,163.81-53.93c103.38-29.66,201.03-57.67,305.63-137.03
				c40.17-30.48,109.29-27.06,188.84-19.92c77.65,6.97,137.52-4.87,194.13-38.36c53.08-31.41,100.38-79.76,160.27-140.98
				c32.99-33.72,70.38-71.94,114.41-113c7.91-7.38,16.01-14.22,23.84-20.84c8.45-7.14,16.43-13.89,23.96-21.06
				c59.82-57.02,128.57-77.41,216.35-64.19c77.52,11.68,160.93,49.08,241.59,85.25c96.53,43.28,196.34,88.04,290.26,91.67
				c48.32,1.87,91.21-7.04,130.93-27.19v-2.54C2982.81,439.83,2939.35,448.98,2891.8,447.15z"/>
			
				<radialGradient id="SVGID_00000181788987196495017420000014841503985493497760_" cx="1507.5857" cy="584.0634" r="1189.5811" gradientUnits="userSpaceOnUse">
				<stop  offset="0" style="stop-color:#BA5F65"/>
				<stop  offset="0.171" style="stop-color:#B65E64"/>
				<stop  offset="0.3265" style="stop-color:#AB5960"/>
				<stop  offset="0.4758" style="stop-color:#99515A"/>
				<stop  offset="0.6215" style="stop-color:#7F4751"/>
				<stop  offset="0.7644" style="stop-color:#5D3946"/>
				<stop  offset="0.9034" style="stop-color:#352838"/>
				<stop  offset="1" style="stop-color:#141B2D"/>
			</radialGradient>
			<path style="fill:url(#SVGID_00000181788987196495017420000014841503985493497760_);" d="M2595.16,365.05
				c-83.25-39.29-161.88-76.41-238.4-89.92c-41.2-7.28-77.73-6.92-111.67,1.09c-38.04,8.97-71.93,27.26-103.63,55.9
				c-7.1,6.42-14.61,12.5-22.56,18.93c-8.62,6.98-17.54,14.2-26.29,22.18c-57.71,52.64-102,101.5-141.07,144.61
				c-100.81,111.22-161.66,178.35-314.42,164.89c-83.47-7.36-150.61-10.86-192.05,15.87c-99.01,63.86-188.4,82.11-283.04,101.44
				c-62.1,12.68-126.32,25.8-193.85,52.96c-115.27,46.78-179.21,61.04-230.83,15.51c-33.73-29.75-71.71-40.24-124.29-54.76
				c-29.64-8.19-63.23-17.46-102.66-32.14c-71.74-26.7-147.6-37.68-231.91-33.55c-72.78,3.56-139.72,17.65-198.77,30.09
				c-38.55,8.12-73.48,15.46-103.86,18.49v2.03c30.54-3.04,65.6-10.42,104.27-18.56c119.66-25.19,268.58-56.54,429.57,3.38
				c39.51,14.71,73.15,24,102.83,32.19c52.31,14.45,90.11,24.89,123.5,54.34c21.57,19.02,46.3,28.18,76.75,28.18
				c6.43,0,13.12-0.41,20.08-1.22c37.56-4.37,81.56-20,136.07-42.12c67.36-27.1,131.49-40.19,193.5-52.86
				c94.83-19.37,184.39-37.66,283.72-101.72c40.9-26.38,107.71-22.88,190.79-15.56c72.31,6.38,127.37-4.94,178.53-36.68
				c47.38-29.39,87.17-73.29,137.54-128.86c39.05-43.08,83.3-91.9,140.94-144.48c8.7-7.94,17.59-15.14,26.2-22.1
				c7.97-6.45,15.5-12.55,22.65-19.01c59.51-53.78,127.38-71.73,213.61-56.5c76.26,13.47,154.77,50.53,237.89,89.76
				c104.94,49.53,211.79,99.97,314.31,99.97c38.74,0,76.87-7.21,114.04-24.39v-2.33C2887.56,503.06,2739.54,433.2,2595.16,365.05z"
				/>
			
				<radialGradient id="SVGID_00000175318521796055622450000003735562831158087075_" cx="1507.0891" cy="574.647" r="1193.6366" gradientUnits="userSpaceOnUse">
				<stop  offset="0" style="stop-color:#B8656C"/>
				<stop  offset="0.1726" style="stop-color:#B4636B"/>
				<stop  offset="0.3289" style="stop-color:#A95E66"/>
				<stop  offset="0.4789" style="stop-color:#97565F"/>
				<stop  offset="0.625" style="stop-color:#7D4A55"/>
				<stop  offset="0.7682" style="stop-color:#5C3B49"/>
				<stop  offset="0.9075" style="stop-color:#332939"/>
				<stop  offset="1" style="stop-color:#141B2D"/>
			</radialGradient>
			<path style="fill:url(#SVGID_00000175318521796055622450000003735562831158087075_);" d="M2588.24,373.24
				c-82.01-40.68-159.48-79.1-234.84-94.38c-40.61-8.23-76.69-8.89-110.31-2.02c-37.66,7.71-71.34,24.6-102.96,51.66
				c-6.7,5.73-13.76,11.2-21.23,16.98c-9.41,7.29-19.14,14.82-28.71,23.36c-67.84,60.56-115.14,117.9-156.87,168.49
				c-84.95,102.98-141.07,171.02-286.09,158.46c-87.3-7.56-152.35-11.16-194.42,11.54c-95.74,51.65-183.56,61.86-268.5,71.73
				c-68.91,8.01-140.17,16.29-216.2,46.32c-51.66,20.59-97.57,38.18-136.23,44.87c-39.76,6.88-68.88,1.92-94.41-16.08
				c-30.52-21.53-65.1-27.88-108.87-35.93c-34.53-6.35-73.66-13.54-122.42-29.64c-74.3-24.53-152.52-32.66-239.14-24.84
				c-74.59,6.73-142.47,23.97-202.36,39.17c-32.43,8.23-62.28,15.81-88.83,20.51v4.05c26.88-4.71,57.01-12.36,89.81-20.68
				c115.21-29.25,272.99-69.31,439.26-14.41c49.02,16.19,88.3,23.4,122.95,29.77c43.29,7.96,77.49,14.24,107.29,35.26
				c18.77,13.24,40.04,19.71,65.5,19.71c9.96,0,20.56-0.99,31.91-2.96c39.04-6.76,85.15-24.42,137.02-45.09
				c75.54-29.84,146.53-38.09,215.19-46.07c85.31-9.92,173.52-20.17,269.93-72.18c41.08-22.17,105.56-18.57,192.17-11.07
				c69.02,5.98,120.87-5.31,168.13-36.58c43.33-28.68,79.51-72.53,121.4-123.31c41.64-50.48,88.83-107.69,156.45-168.05
				c9.46-8.45,19.14-15.94,28.49-23.18c7.51-5.81,14.6-11.31,21.38-17.11c58.87-50.37,125.56-65.86,209.88-48.77
				c74.84,15.18,152.08,53.49,233.85,94.04c97.37,48.3,198.06,98.24,296.32,107.14c50.86,4.61,96.68-1.97,139.87-20.08v-4.31
				C2882.64,519.26,2733.6,445.34,2588.24,373.24z"/>
			
				<radialGradient id="SVGID_00000100346308687135398330000014686902465233899430_" cx="1506.7539" cy="569.6082" r="1196.8881" gradientUnits="userSpaceOnUse">
				<stop  offset="0" style="stop-color:#B56C72"/>
				<stop  offset="0.1748" style="stop-color:#B16A70"/>
				<stop  offset="0.3324" style="stop-color:#A6656C"/>
				<stop  offset="0.4834" style="stop-color:#945B64"/>
				<stop  offset="0.6303" style="stop-color:#7A4E59"/>
				<stop  offset="0.7744" style="stop-color:#593E4B"/>
				<stop  offset="0.9142" style="stop-color:#312939"/>
				<stop  offset="1" style="stop-color:#141B2D"/>
			</radialGradient>
			<path style="fill:url(#SVGID_00000100346308687135398330000014686902465233899430_);" d="M2878.4,497.7
				c-99.84-11.57-200.68-64.05-298.21-114.8c-80.63-41.96-156.79-81.59-230.69-98.53c-39.74-9.11-75.09-10.76-108.09-5.04
				c-36.91,6.4-70.05,21.8-101.31,47.07c-6.33,5.12-12.93,10.01-19.93,15.18c-10.18,7.53-20.71,15.32-31.06,24.37
				c-75.6,66.05-123.57,130.73-165.89,187.79c-72.8,98.15-125.4,169.07-266.05,157.1c-91.09-7.75-153.91-11.45-195.66,6.98
				c-94.38,41.67-178.59,43.84-260.03,45.94c-73.86,1.9-150.24,3.87-232.69,35.85l-4.41,1.73c-108.94,42.65-174.7,68.4-227.96,40.11
				c-27.38-14.54-57.15-17.05-94.84-20.22c-36.67-3.09-82.32-6.92-140.24-23.74c-76.75-22.29-157.21-27.46-245.98-15.81
				c-76.35,10.02-145.11,30.48-205.77,48.54c-26.49,7.89-51.22,15.24-73.73,20.81v2.06c22.69-5.59,47.6-13,74.3-20.95
				c117.39-34.94,278.17-82.79,450.62-32.72c58.12,16.88,103.87,20.72,140.63,23.81c37.46,3.15,67.05,5.64,94.07,19.99
				c25.48,13.53,54.73,15.56,94.85,6.55c37.11-8.33,80.21-25.2,134.78-46.57l4.41-1.73c82.12-31.85,158.32-33.82,232.01-35.72
				c81.63-2.1,166.04-4.28,260.79-46.11c41.31-18.24,103.9-14.54,194.68-6.81c10.45,0.89,20.52,1.34,30.24,1.34
				c51.21,0,92.76-12.43,129.07-38.32c39.96-28.49,71.72-71.32,108.51-120.92c42.26-56.98,90.17-121.57,165.6-187.48
				c10.29-8.99,20.78-16.76,30.93-24.27c7.01-5.19,13.64-10.09,20-15.23c128.79-104.15,278.94-26.01,437.9,56.71
				c97.69,50.83,198.7,103.4,298.9,115.01c52.2,6.05,99.52,0.63,144.49-16.55v-2.37C2977.66,498.08,2929.75,503.65,2878.4,497.7z"/>
			
				<radialGradient id="SVGID_00000181085581322687178940000012962584449586028930_" cx="1506.3396" cy="587.0443" r="1203.7167" gradientUnits="userSpaceOnUse">
				<stop  offset="0" style="stop-color:#B27279"/>
				<stop  offset="0.1769" style="stop-color:#AE7077"/>
				<stop  offset="0.3359" style="stop-color:#A46A72"/>
				<stop  offset="0.4879" style="stop-color:#916069"/>
				<stop  offset="0.6358" style="stop-color:#77525D"/>
				<stop  offset="0.7806" style="stop-color:#563F4D"/>
				<stop  offset="0.9212" style="stop-color:#2E293A"/>
				<stop  offset="1" style="stop-color:#141B2D"/>
			</radialGradient>
			<path style="fill:url(#SVGID_00000181085581322687178940000012962584449586028930_);" d="M2873.55,514.29
				c-102-14.36-203.27-69.57-301.19-122.96c-156.49-85.31-304.3-165.9-432.93-67.77c-5.91,4.51-12.04,8.83-18.52,13.42
				c-10.98,7.76-22.34,15.78-33.53,25.35c-81.89,70.05-129.13,141.5-170.8,204.54c-65.07,98.42-112.07,169.53-249.37,158.05
				l-3.18-0.27c-84-7.03-150.34-12.58-194.28,2.81c-94.03,32.92-175.87,27.57-255.02,22.4c-81.23-5.31-157.94-10.32-245.61,23.08
				c-11.99,4.61-23.44,9.07-34.51,13.39c-90.87,35.41-150.89,58.81-198.67,41.63c-24.82-8.93-50.63-8.36-83.3-7.63
				c-39.72,0.88-89.16,1.97-155.81-14.86c-179.32-45.28-343.35,10.8-463.12,51.75c-20.49,7-39.82,13.61-57.83,19.23v2.1
				c18.21-5.66,37.76-12.35,58.48-19.43c119.53-40.87,283.23-96.84,461.98-51.71c66.92,16.9,116.51,15.8,156.35,14.92
				c32.46-0.72,58.1-1.29,82.58,7.52c11.25,4.05,23.12,5.89,35.88,5.89c42.24,0,94.09-20.21,164.19-47.53
				c11.07-4.31,22.51-8.77,34.49-13.38c87.26-33.25,163.77-28.25,244.77-22.95c79.35,5.19,161.4,10.55,255.81-22.51
				c43.53-15.24,109.69-9.71,193.45-2.7l3.18,0.27c9.89,0.83,19.29,1.23,28.29,1.23c117.01-0.01,162.14-68.25,222.91-160.17
				c41.6-62.93,88.76-134.26,170.43-204.12c11.12-9.51,22.44-17.51,33.39-25.24c6.5-4.59,12.65-8.93,18.58-13.46
				c127.6-97.35,274.86-17.06,430.76,67.93c98.08,53.47,199.51,108.77,301.87,123.18c53.61,7.55,102.53,3.35,149.38-12.83v-2.33
				C2975.8,517.38,2926.28,521.71,2873.55,514.29z"/>
			
				<radialGradient id="SVGID_00000102517842341076009670000008174481500236233636_" cx="1505.9252" cy="604.6371" r="1210.6658" gradientUnits="userSpaceOnUse">
				<stop  offset="0" style="stop-color:#B07980"/>
				<stop  offset="0.1786" style="stop-color:#AC777E"/>
				<stop  offset="0.3385" style="stop-color:#A27078"/>
				<stop  offset="0.4912" style="stop-color:#8F656F"/>
				<stop  offset="0.6395" style="stop-color:#765661"/>
				<stop  offset="0.7847" style="stop-color:#54424F"/>
				<stop  offset="0.9256" style="stop-color:#2C2A3A"/>
				<stop  offset="1" style="stop-color:#141B2D"/>
			</radialGradient>
			<path style="fill:url(#SVGID_00000102517842341076009670000008174481500236233636_);" d="M2868.53,530.73
				c-104.2-17.23-205.87-75.23-304.2-131.32c-153.38-87.5-298.25-170.14-425.58-78.7c-5.45,3.91-11.06,7.69-17,11.69
				c-11.82,7.95-24.05,16.18-36.13,26.3c-87.12,72.97-132.67,150.84-172.86,219.54c-58.36,99.76-100.52,171.84-235.54,160.74
				c-6.34-0.52-12.58-1.04-18.73-1.55c-77.25-6.44-138.27-11.53-180.53-0.34c-94.55,25.03-174.98,12.47-252.77,0.33
				c-84.27-13.15-163.86-25.58-255.78,8.83c-24.09,9.1-46.61,18.07-66.48,25.97c-75.86,30.2-125.98,50.16-167.53,42.23
				c-22.62-4.31-46.24-1.15-73.6,2.52c-42.11,5.65-94.52,12.68-169.52-3.56c-186.05-40.27-353.08,24.34-475.04,71.51
				c-14.4,5.57-28.21,10.91-41.38,15.81v2.13c13.38-4.97,27.44-10.41,42.1-16.07c121.73-47.09,288.44-111.57,473.9-71.42
				c75.34,16.31,127.95,9.25,170.21,3.59c27.18-3.65,50.66-6.8,72.96-2.54c42.12,8.04,92.46-12,168.65-42.33
				c19.86-7.91,42.37-16.87,66.44-25.96c91.43-34.23,170.77-21.84,254.77-8.73c77.99,12.17,158.63,24.76,253.59-0.37
				c41.93-11.1,102.8-6.03,179.85,0.4c6.15,0.51,12.4,1.03,18.73,1.55c62.79,5.16,109.84-7.39,148.08-39.49
				c35.05-29.42,60.21-72.43,89.35-122.24c40.11-68.56,85.57-146.27,172.42-219.02c12-10.05,24.18-18.25,35.96-26.17
				c5.95-4.01,11.58-7.79,17.05-11.72c126.29-90.69,270.62-8.36,423.42,78.81c98.48,56.18,200.31,114.27,304.86,131.56
				c55.07,9.11,105.65,6.16,154.45-9.02v-2.29C2973.88,536.64,2922.7,539.69,2868.53,530.73z"/>
			
				<radialGradient id="SVGID_00000156581018695610065270000006487342758936499607_" cx="1505.5078" cy="622.2923" r="1217.7832" gradientUnits="userSpaceOnUse">
				<stop  offset="0" style="stop-color:#AD7F87"/>
				<stop  offset="0.1808" style="stop-color:#A97D85"/>
				<stop  offset="0.3421" style="stop-color:#9F767F"/>
				<stop  offset="0.496" style="stop-color:#8C6A74"/>
				<stop  offset="0.6453" style="stop-color:#735965"/>
				<stop  offset="0.7912" style="stop-color:#524351"/>
				<stop  offset="0.9328" style="stop-color:#2A293A"/>
				<stop  offset="1" style="stop-color:#141B2D"/>
			</radialGradient>
			<path style="fill:url(#SVGID_00000156581018695610065270000006487342758936499607_);" d="M2556.12,407.13
				c-76.47-45.6-148.71-88.67-218.46-110.31c-37.45-11.62-70.93-16.05-102.35-13.54c-35.07,2.8-66.88,14.11-97.24,34.59
				c-4.93,3.33-9.97,6.55-15.3,9.96c-12.72,8.14-25.87,16.55-38.9,27.24c-91.57,75.13-134.78,159.18-172.91,233.34
				c-52.36,101.84-90.19,175.43-223.71,164.64c-12.67-1.02-24.99-2.07-36.9-3.09c-69.44-5.92-124.29-10.59-164.17-3.23
				c-95.73,17.68-175.44-1.92-252.54-20.86c-86.64-21.3-168.47-41.41-263.93-6.3c-39.98,14.84-74.47,30.88-104.89,45.04
				c-56.47,26.27-97.27,45.25-129.72,36.41c-24.06-6.55-48.58,0.07-79.62,8.46c-41.8,11.3-93.81,25.36-167.73,11.89
				c-85.53-15.58-174.01-11.3-270.49,13.06c-82.45,20.82-157.07,53.1-217.03,79.03c-8.39,3.63-16.5,7.13-24.37,10.5v2.18
				c8.11-3.47,16.49-7.09,25.16-10.84c123.96-53.62,293.74-127.04,486.37-91.96c74.36,13.54,126.62-0.58,168.61-11.93
				c30.75-8.31,55.04-14.88,78.58-8.46c5.68,1.55,11.59,2.27,17.78,2.27c29.92,0,66.2-16.88,113.31-38.8
				c30.39-14.14,64.83-30.16,104.74-44.97c94.88-34.9,176.43-14.85,262.76,6.37c77.3,19,157.23,38.64,253.38,20.89
				c39.61-7.32,94.34-2.65,163.63,3.25c11.92,1.02,24.24,2.07,36.91,3.09c62.07,5.01,107.85-8.07,144.07-41.16
				c33.08-30.23,55.56-73.94,81.58-124.56c38.04-73.99,81.16-157.85,172.4-232.71c12.94-10.62,26.04-19,38.71-27.1
				c5.34-3.42,10.39-6.65,15.34-9.99c56.94-38.4,119.82-45.01,197.87-20.79c69.53,21.57,141.66,64.58,218.03,110.12
				c98.86,58.95,201.09,119.9,307.85,140.14c56.59,10.73,108.87,9.06,159.7-5.09v-2.55
				C2857.86,587.03,2699.83,492.81,2556.12,407.13z"/>
			
				<radialGradient id="SVGID_00000016798341509527447870000018369094299235412904_" cx="1505.0903" cy="639.9856" r="1225.0227" gradientUnits="userSpaceOnUse">
				<stop  offset="0" style="stop-color:#AA868D"/>
				<stop  offset="0.1831" style="stop-color:#A6838B"/>
				<stop  offset="0.3459" style="stop-color:#9C7C84"/>
				<stop  offset="0.5009" style="stop-color:#896F78"/>
				<stop  offset="0.6511" style="stop-color:#705D68"/>
				<stop  offset="0.7979" style="stop-color:#4F4553"/>
				<stop  offset="0.9402" style="stop-color:#272939"/>
				<stop  offset="1" style="stop-color:#141B2D"/>
			</radialGradient>
			<path style="fill:url(#SVGID_00000016798341509527447870000018369094299235412904_);" d="M2547.76,414.48
				c-75.03-46.71-145.9-90.83-214.24-113.93c-36.67-12.39-69.5-17.69-100.36-16.19c-34.43,1.68-65.75,11.7-95.75,30.65
				c-4.34,2.74-8.73,5.41-13.38,8.23c-13.68,8.3-27.82,16.88-41.89,28.19c-95.44,76.72-135.86,166.79-171.51,246.27
				c-45.1,100.53-80.74,179.92-213.34,169.41c-20.17-1.6-39.3-3.32-57.79-4.99c-58.17-5.24-108.41-9.76-145.08-5.75
				c-97.39,10.67-176.91-15.89-253.8-41.58c-88.52-29.57-172.13-57.51-270.58-21.92c-52.23,19.04-95.78,39.12-130.78,55.26
				c-42.95,19.8-76.87,35.44-104.91,39.39c-18.77,2.64-37.02,9.44-58.15,17.3c-45.53,16.95-102.19,38.05-192.96,24.49
				c-88.86-13.27-180.35-5.58-279.69,23.52c-84.68,24.8-160.19,60.99-220.86,90.06c-2.29,1.1-4.56,2.18-6.81,3.26v2.22
				c2.54-1.21,5.09-2.44,7.67-3.68c119.1-57.07,299.08-143.32,499.39-113.41c91.29,13.63,148.21-7.57,193.96-24.6
				c21.02-7.83,39.17-14.58,57.73-17.2c28.33-3.99,62.37-19.68,105.47-39.55c34.96-16.12,78.47-36.18,130.62-55.2
				c97.8-35.35,181.08-7.53,269.27,21.93c77.09,25.76,156.81,52.38,254.65,41.67c36.46-4,86.62,0.52,144.68,5.75
				c18.5,1.67,37.62,3.39,57.81,4.99c61.64,4.89,106.37-8.78,140.75-43.01c31.32-31.18,51.36-75.85,74.57-127.58
				c35.57-79.27,75.88-169.11,170.94-245.53c13.97-11.23,28.06-19.78,41.68-28.04c4.66-2.83,9.06-5.5,13.41-8.25
				c56.27-35.54,118.04-40.07,194.4-14.26c68.12,23.02,138.89,67.08,213.83,113.73c99.23,61.78,201.85,125.66,310.83,148.93
				c58.15,12.41,112.19,12.07,165.12-1.04v-2.37C2852,603.88,2692.65,504.68,2547.76,414.48z"/>
			
				<radialGradient id="SVGID_00000146501609720211629810000012098376119309437832_" cx="1504.5145" cy="657.7336" r="1233.1029" gradientUnits="userSpaceOnUse">
				<stop  offset="0" style="stop-color:#A88C94"/>
				<stop  offset="0.1849" style="stop-color:#A48992"/>
				<stop  offset="0.3486" style="stop-color:#9A818A"/>
				<stop  offset="0.5043" style="stop-color:#88737D"/>
				<stop  offset="0.655" style="stop-color:#6E606C"/>
				<stop  offset="0.8022" style="stop-color:#4D4755"/>
				<stop  offset="0.9448" style="stop-color:#262839"/>
				<stop  offset="1" style="stop-color:#141B2D"/>
			</radialGradient>
			<path style="fill:url(#SVGID_00000146501609720211629810000012098376119309437832_);" d="M2539.82,420.61
				c-73.62-47.81-143.15-92.97-210.17-117.5c-36-13.18-68.28-19.33-98.71-18.79c-33.95,0.59-64.94,9.42-94.71,26.97
				c-3.64,2.14-7.29,4.24-11.16,6.46c-14.76,8.47-30.03,17.22-45.3,29.26c-44.17,34.79-80.08,76.55-109.77,127.67
				c-25.9,44.58-43.79,90.65-59.57,131.29c-20.49,52.77-38.19,98.34-67.51,130.16c-32.03,34.76-75.09,48.75-135.52,44.04
				c-29.72-2.32-57.01-5.51-83.41-8.59c-48.03-5.62-89.51-10.46-121.54-6.54c-103.12,12.63-185.77-23.99-265.7-59.4
				c-87.06-38.58-169.29-75.01-266.73-40.38c-66.63,23.88-117.66,50.54-158.66,71.96c-31.36,16.39-56.13,29.33-77.81,35.93
				c-17.02,5.18-33.91,13.59-51.78,22.5c-46.72,23.27-104.86,52.22-202.92,40.65c-92.57-10.92-187.39,0.38-289.89,34.55
				c-81.6,27.2-153.8,64.27-213.06,95.44v4.52C96.93,907.07,275.7,816.35,478.34,840.26c99.25,11.71,157.98-17.54,205.18-41.04
				c17.72-8.83,34.46-17.16,51.16-22.25c22.04-6.71,46.95-19.73,78.5-36.21c40.89-21.37,91.78-47.96,158.15-71.74
				c95.94-34.09,177.46,2.03,263.77,40.27c80.42,35.64,163.58,72.48,267.81,59.72c31.56-3.87,72.82,0.96,120.59,6.55
				c26.44,3.09,53.77,6.29,83.57,8.61c7.73,0.6,15.11,0.9,22.19,0.9c115.89-0.01,146.61-79.06,184.89-177.64
				c32.75-84.32,69.86-179.89,168.09-257.26c15.04-11.85,30.18-20.53,44.82-28.93c3.88-2.22,7.54-4.33,11.2-6.48
				c55.27-32.59,115.65-35.09,190.02-7.87c66.59,24.37,135.94,69.41,209.36,117.1c125.12,81.26,260.87,169.45,408.34,169.43
				c25.21,0,50.77-2.59,76.68-8.22v-4.23C2846.25,619.62,2685.74,515.38,2539.82,420.61z"/>
			
				<radialGradient id="SVGID_00000085238564605840872770000016588038585807181483_" cx="1504.2585" cy="675.5428" r="1239.9331" gradientUnits="userSpaceOnUse">
				<stop  offset="0" style="stop-color:#A5939B"/>
				<stop  offset="0.1873" style="stop-color:#A29098"/>
				<stop  offset="0.3525" style="stop-color:#978790"/>
				<stop  offset="0.5093" style="stop-color:#857882"/>
				<stop  offset="0.6611" style="stop-color:#6B636F"/>
				<stop  offset="0.8092" style="stop-color:#4A4856"/>
				<stop  offset="0.9525" style="stop-color:#232738"/>
				<stop  offset="1" style="stop-color:#141B2D"/>
			</radialGradient>
			<path style="fill:url(#SVGID_00000085238564605840872770000016588038585807181483_);" d="M2530.69,428.05
				c-72.08-48.8-140.17-94.89-205.64-120.71c-35.09-13.84-66.6-20.77-96.33-21.18c-33.14-0.47-63.42,7.11-92.66,23.15
				c-2.81,1.54-5.66,3.08-8.55,4.64c-15.91,8.59-32.37,17.47-48.88,30.22c-45.45,35.09-81.47,78.15-110.13,131.67
				c-25.01,46.71-41.27,95.54-55.61,138.63c-35.5,106.65-63.53,190.88-195.57,180.78c-35.5-2.72-68.9-7.03-98.38-10.83
				c-42.21-5.44-78.66-10.13-108.18-8.73c-106.12,5.08-189.04-38.57-269.22-80.78c-88.1-46.38-171.32-90.19-270.92-55.4
				c-79.95,28.16-136.26,62.25-181.51,89.65c-21.21,12.84-39.53,23.93-55.81,31.54c-15.13,7.07-29.95,16.37-45.63,26.22
				c-50.5,31.71-107.74,67.64-213.51,58.33c-201.07-17.7-375.5,72.48-498.31,142.47v2.3C98.5,920.07,272.98,829.54,473.99,847.23
				c47.42,4.17,89.52-0.45,128.72-14.14c34.19-11.94,61.73-29.23,86.02-44.48c15.63-9.81,30.39-19.08,45.41-26.1
				c16.38-7.65,34.74-18.77,56-31.64c45.17-27.35,101.39-61.39,181.14-89.48c98.77-34.51,181.61,9.11,269.32,55.28
				c80.42,42.33,163.57,86.11,270.24,81c29.34-1.41,65.72,3.29,107.83,8.72c29.5,3.8,62.93,8.11,98.48,10.84
				c7.34,0.56,14.35,0.84,21.07,0.84c115.64,0,142.74-81.4,176.55-182.98c29.8-89.53,63.58-191.01,165.06-269.34
				c16.38-12.65,32.76-21.49,48.6-30.04c2.89-1.56,5.75-3.1,8.56-4.65c54.8-30.05,114.31-30.65,187.29-1.86
				c65.27,25.74,133.26,71.77,205.26,120.51c128.36,86.89,267.86,181.35,422.69,181.33c23.12,0,46.58-2.11,70.39-6.66v-2.1
				C2839.86,637.34,2677.91,527.71,2530.69,428.05z"/>
			
				<radialGradient id="SVGID_00000032614442742195647370000010591799481091181957_" cx="1503.8412" cy="693.3466" r="1247.6263" gradientUnits="userSpaceOnUse">
				<stop  offset="0" style="stop-color:#A299A2"/>
				<stop  offset="0.1898" style="stop-color:#9F969F"/>
				<stop  offset="0.3565" style="stop-color:#948C96"/>
				<stop  offset="0.5146" style="stop-color:#827C87"/>
				<stop  offset="0.6673" style="stop-color:#686673"/>
				<stop  offset="0.8163" style="stop-color:#484958"/>
				<stop  offset="0.9605" style="stop-color:#202637"/>
				<stop  offset="1" style="stop-color:#141B2D"/>
			</radialGradient>
			<path style="fill:url(#SVGID_00000032614442742195647370000010591799481091181957_);" d="M2522.04,434.28
				c-70.59-49.77-137.26-96.78-201.29-123.88c-71.87-30.42-130.77-31.67-185.36-3.94c-1.79,0.91-3.59,1.82-5.41,2.74
				c-17.25,8.71-35.09,17.72-53.09,31.33c-46.71,35.35-82.81,79.72-110.37,135.67c-24.06,48.84-38.6,100.45-51.43,145.98
				c-31.03,110.1-55.53,197.06-187.73,187.12c-51.44-3.87-97.12-9.98-137.43-15.37c-26.95-3.6-50.23-6.72-70.87-8.59
				c-104.31-9.47-185.09-57.02-263.21-102.99c-47.34-27.86-92.06-54.18-138.28-69.14c-51.9-16.8-98.49-16.92-146.63-0.39
				c-91.93,31.82-154.28,76.01-199.81,108.27c-14.3,10.14-26.66,18.89-38.29,26.21c-13.39,8.42-26.38,18.31-40.12,28.78
				c-51.6,39.29-110.09,83.82-223.06,77.12c-100.3-5.95-201.98,13.13-310.85,58.34c-69.22,28.75-130.33,63.47-182.94,95.6v2.34
				C99.35,933.95,269.95,843.36,469.53,855.2c113.72,6.75,172.52-38.02,224.39-77.53c13.71-10.44,26.67-20.3,39.98-28.68
				c11.69-7.35,24.06-16.12,38.39-26.27c45.43-32.19,107.65-76.28,199.31-108.01c104.44-35.88,187.29,12.89,283.24,69.36
				c38.37,22.58,78.05,45.93,121.39,64.93c49.14,21.54,95.81,34.08,142.66,38.33c20.6,1.87,43.86,4.98,70.79,8.58
				c40.33,5.39,86.05,11.51,137.54,15.38c61.46,4.62,103.88-11.04,133.5-49.29c26.81-34.61,40.48-83.12,56.3-139.28
				c26.64-94.55,56.84-201.71,161.08-280.59c17.85-13.51,35.61-22.47,52.78-31.14c1.82-0.92,3.63-1.83,5.42-2.74
				c54.02-27.44,112.39-26.17,183.68,4c63.84,27.02,130.42,73.97,200.92,123.67c100.19,70.64,203.79,143.69,319.5,176.49
				c62.82,17.81,122.23,21.77,181.62,12.1c0.22-0.04,0.43-0.08,0.65-0.11v-1.88C2833.59,653.94,2670.38,538.87,2522.04,434.28z"/>
			
				<radialGradient id="SVGID_00000142141564670514652390000009320131781596887741_" cx="1503.4237" cy="711.613" r="1255.5144" gradientUnits="userSpaceOnUse">
				<stop  offset="0" style="stop-color:#9FA0A8"/>
				<stop  offset="0.1923" style="stop-color:#9C9DA5"/>
				<stop  offset="0.3606" style="stop-color:#91929B"/>
				<stop  offset="0.5199" style="stop-color:#7F818C"/>
				<stop  offset="0.6737" style="stop-color:#666975"/>
				<stop  offset="0.8235" style="stop-color:#454A58"/>
				<stop  offset="0.9685" style="stop-color:#1E2435"/>
				<stop  offset="1" style="stop-color:#141B2D"/>
			</radialGradient>
			<path style="fill:url(#SVGID_00000142141564670514652390000009320131781596887741_);" d="M2513.37,440.14
				c-69.08-50.69-134.32-98.57-196.92-126.9c-70.18-31.75-127.93-34.81-181.73-9.63l-1.57,0.74c-17.94,8.39-38.27,17.91-58.01,32.55
				c-47.87,35.52-83.96,81.11-110.33,139.39c-23.02,50.89-35.78,105.21-47.04,153.13c-26.7,113.69-47.8,203.49-180.4,193.95
				c-65.94-5-123.94-14.46-170.54-22.06c-14.07-2.29-27.36-4.46-39.58-6.3c-107.01-16.09-192.28-73.2-267.52-123.59
				c-47.94-32.11-93.22-62.43-139.93-80.25c-52.37-19.98-99.58-21.57-148.57-5.02c-102.34,34.82-166.92,88.39-214.07,127.51
				c-8.74,7.25-17,14.1-24.8,20.26c-10.35,8.17-20.32,16.75-30.87,25.84c-53.07,45.68-113.22,97.45-236.44,101.42
				c-101.86,3.28-204.76,28.97-314.59,78.54c-65.76,29.68-124,63.39-174.6,94.77v2.34c123.23-76.57,291.36-167.27,489.26-173.65
				c123.93-3.99,184.36-56.01,237.68-101.9c10.54-9.07,20.49-17.64,30.81-25.78c7.82-6.17,16.09-13.03,24.84-20.29
				c47.04-39.02,111.45-92.46,213.44-127.16c106.2-35.88,189.87,20.16,286.75,85.04c75.41,50.51,160.88,107.75,268.33,123.91
				c12.21,1.84,25.49,4,39.55,6.3c46.64,7.61,104.69,17.08,170.71,22.08c6.51,0.47,12.79,0.7,18.87,0.7
				c51.46,0,87.6-16.91,112.83-52.47c25.47-35.9,37.77-88.27,50.8-143.72c23.36-99.44,49.83-212.14,156.61-291.36
				c19.58-14.52,38.94-23.58,57.66-32.35l1.57-0.74c53.23-24.92,110.45-21.86,180.06,9.64c62.41,28.24,127.57,76.06,196.56,126.69
				c100.44,73.71,204.3,149.93,322.23,186.06c63.92,19.59,126.41,25.14,188.24,16.54v-1.65
				C2827.19,670.43,2662.78,549.79,2513.37,440.14z"/>
			
				<radialGradient id="SVGID_00000128462962559403037510000015823741267119238027_" cx="1503.0094" cy="729.4257" r="1263.4861" gradientUnits="userSpaceOnUse">
				<stop  offset="0" style="stop-color:#9DA6AF"/>
				<stop  offset="0.193" style="stop-color:#9AA3AC"/>
				<stop  offset="0.3612" style="stop-color:#8F98A2"/>
				<stop  offset="0.5202" style="stop-color:#7D8691"/>
				<stop  offset="0.6736" style="stop-color:#656D79"/>
				<stop  offset="0.823" style="stop-color:#454C5B"/>
				<stop  offset="0.9675" style="stop-color:#1E2536"/>
				<stop  offset="1" style="stop-color:#141B2D"/>
			</radialGradient>
			<path style="fill:url(#SVGID_00000128462962559403037510000015823741267119238027_);" d="M2504.71,445.63
				c-67.56-51.57-131.37-100.29-192.54-129.78c-68.51-33.03-125.11-37.83-178.12-15.09c-20.52,8.8-40.6,17.91-60.66,32.5
				c-48.95,35.61-84.95,82.38-110.05,142.97c-21.93,52.92-32.85,109.96-42.49,160.29c-10.91,56.99-21.22,110.82-45.19,147.71
				c-26.39,40.61-67.15,57.51-128.26,53.19c-83.68-6.22-155.45-21.07-207.84-31.91l-4.1-0.85
				c-109.83-22.71-196.08-87.33-272.18-144.34c-48.48-36.31-94.26-70.62-141.4-91.25c-52.78-23.11-100.55-26.17-150.34-9.63
				c-111.13,37.17-176.97,100.69-225.04,147.08c-5.07,4.9-9.87,9.52-14.57,13.98c-8.86,8.4-17.38,16.98-26.4,26.05
				c-53.98,54.3-115.15,115.85-244.99,122.57c-195.01,10.09-363.5,102.96-484.68,182.69v2.4c121.07-79.76,289.68-173,484.78-183.09
				c58.38-3.02,107.9-17.17,151.41-43.26c38.34-22.99,67.09-51.92,94.9-79.89c9.01-9.07,17.53-17.63,26.36-26.01
				c4.71-4.47,9.51-9.1,14.58-13.99c47.94-46.25,113.59-109.59,224.29-146.62c107.82-35.82,192.2,27.39,289.9,100.58
				c76.27,57.14,162.71,121.89,272.98,144.7l4.1,0.85c52.45,10.85,124.29,25.72,208.1,31.95c6.26,0.44,12.3,0.67,18.14,0.67
				c51.97,0,87.82-17.64,111.94-54.76c24.19-37.23,34.53-91.24,45.48-148.43c19.98-104.35,42.62-222.62,151.75-302.02
				c19.89-14.47,39.86-23.53,60.27-32.28c114.74-49.22,232.41,40.61,368.66,144.62c95.95,73.25,204.7,156.27,324.85,195.81
				c65.62,21.59,130.11,28.74,194.31,21.35v-1.51C2820.67,686.83,2655.13,560.46,2504.71,445.63z"/>
			
				<radialGradient id="SVGID_00000169534923607859795310000010184317606519132329_" cx="1502.592" cy="747.3103" r="1271.6061" gradientUnits="userSpaceOnUse">
				<stop  offset="0" style="stop-color:#9AADB6"/>
				<stop  offset="0.1895" style="stop-color:#97AAB3"/>
				<stop  offset="0.3541" style="stop-color:#8D9FA9"/>
				<stop  offset="0.5094" style="stop-color:#7D8D98"/>
				<stop  offset="0.6592" style="stop-color:#667480"/>
				<stop  offset="0.8049" style="stop-color:#485362"/>
				<stop  offset="0.9457" style="stop-color:#242C3D"/>
				<stop  offset="1" style="stop-color:#141B2D"/>
			</radialGradient>
			<path style="fill:url(#SVGID_00000169534923607859795310000010184317606519132329_);" d="M2496.1,450.78
				c-133.44-105.91-248.68-197.37-362.71-152.87c-18.46,7.21-39.99,16.2-61.74,31.72c-49.96,35.65-85.81,83.53-109.6,146.39
				c-20.78,54.91-29.44,112.09-37.8,167.38c-8.9,58.8-17.3,114.33-40.05,152.59c-25.06,42.14-65.35,59.78-126.76,55.5
				c-87.43-6.37-160.17-23.21-213.77-37.16c-112.74-29.35-200.07-101.55-277.13-165.25c-98.9-81.77-184.32-152.39-294.68-116.32
				c-52.55,17.28-99.14,42.53-142.43,77.19c-37.32,29.88-65.83,61.53-90.98,89.46c-2.34,2.6-4.65,5.17-6.93,7.69
				c-7.61,8.42-15.27,17.25-22.69,25.8c-57.42,66.2-116.8,134.65-252.8,144.19c-59.63,4.18-120.85,16.43-181.96,36.43
				c-52.4,17.14-106.33,40.51-160.29,69.46c-50.69,27.2-96.88,56.78-137.91,85.26v2.36c121.54-84.66,286.36-177.92,480.3-191.51
				c61.2-4.29,112.62-21.16,157.19-51.58c39.36-26.86,68.65-60.63,96.98-93.29c7.41-8.54,15.06-17.37,22.66-25.77
				c2.28-2.52,4.59-5.09,6.93-7.69c51.09-56.73,114.67-127.33,232.55-166.09c109.31-35.73,194.34,34.56,292.79,115.96
				c77.21,63.84,164.73,136.19,277.9,165.65c53.68,13.97,126.54,30.83,214.13,37.22c62.27,4.35,103.14-13.6,128.62-56.47
				c22.95-38.59,31.38-94.31,40.31-153.31c16.53-109.22,35.26-233,146.59-312.44c21.56-15.39,42.95-24.32,61.3-31.48
				c112.96-44.09,227.79,47.04,360.74,152.57c96.09,76.27,205.01,162.71,327.34,205.72c53.48,18.8,106.46,28.22,159.38,28.22
				c13.69,0,27.38-0.64,41.07-1.9v-1.38C2814.04,703.12,2647.44,570.91,2496.1,450.78z"/>
			
				<radialGradient id="SVGID_00000119103770784857588190000005135190841416852151_" cx="1499.2557" cy="765.1426" r="1282.7087" gradientUnits="userSpaceOnUse">
				<stop  offset="0" style="stop-color:#97B3BD"/>
				<stop  offset="0.1868" style="stop-color:#94B0BA"/>
				<stop  offset="0.3485" style="stop-color:#8BA5B0"/>
				<stop  offset="0.5009" style="stop-color:#7C939F"/>
				<stop  offset="0.6475" style="stop-color:#667A87"/>
				<stop  offset="0.7902" style="stop-color:#4A5A68"/>
				<stop  offset="0.9279" style="stop-color:#283343"/>
				<stop  offset="1" style="stop-color:#141B2D"/>
			</radialGradient>
			<path style="fill:url(#SVGID_00000119103770784857588190000005135190841416852151_);" d="M2488.21,454.83
				c-130.4-107.55-243.02-200.43-355.82-160.7c-18.6,6.55-40.64,15.36-63.06,31.05c-51.09,35.76-86.87,84.88-109.37,150.18
				c-19.64,56.98-26.46,116.78-33.07,174.61c-6.91,60.57-13.45,117.78-34.91,157.25c-23.55,43.33-63.11,61.54-124.46,57.33
				c-71.58-5.11-142.03-18.69-215.37-41.51c-115.52-35.94-203.92-115.74-281.92-186.14c-99.82-90.1-186.02-167.91-298.39-131.78
				c-124.55,40.27-188.69,121.24-240.23,186.3l-1.31,1.66c-7.82,9.87-15.7,20.28-23.32,30.35
				c-57.45,75.94-116.86,154.48-255.49,160.62c-63.98,2.84-129.41,15.57-194.46,37.84c-55.5,19-112.28,45.5-168.75,78.75
				c-40.56,23.89-78.24,49.64-112.45,75.03v4.86c120.38-89.78,283.88-183.98,475.83-192.49c62.83-2.79,115.42-20.92,160.77-55.43
				c39.96-30.41,69.33-69.23,97.73-106.78c7.6-10.05,15.47-20.44,23.26-30.28l1.31-1.66c51.2-64.64,114.93-145.08,238.32-184.97
				c110.17-35.43,195.58,41.67,294.48,130.94c78.3,70.68,167.05,150.79,283.41,186.99c73.64,22.91,144.39,36.55,216.28,41.68
				c5.86,0.4,11.51,0.6,16.99,0.6c53.53,0,89.13-19.32,111.26-60.02c21.83-40.16,28.41-97.74,35.37-158.71
				c13-113.83,27.73-242.85,140.75-321.96c22.02-15.41,43.75-24.1,62.09-30.56c110.68-38.98,222.49,53.24,351.95,160.02
				c96.25,79.38,205.33,169.35,329.97,215.94c58.23,21.77,116.14,32.67,174.3,32.67c10.9,0,21.8-0.39,32.72-1.16v-4.47
				C2804.65,715.82,2633.01,574.26,2488.21,454.83z"/>
			
				<radialGradient id="SVGID_00000124145924528444186410000002098090040836097713_" cx="1499.2557" cy="783.174" r="1290.3726" gradientUnits="userSpaceOnUse">
				<stop  offset="0" style="stop-color:#95BAC3"/>
				<stop  offset="0.1838" style="stop-color:#92B7C0"/>
				<stop  offset="0.3423" style="stop-color:#8AACB6"/>
				<stop  offset="0.4915" style="stop-color:#7B9AA5"/>
				<stop  offset="0.635" style="stop-color:#67818D"/>
				<stop  offset="0.7743" style="stop-color:#4D616F"/>
				<stop  offset="0.9088" style="stop-color:#2D3A4A"/>
				<stop  offset="1" style="stop-color:#141B2D"/>
			</radialGradient>
			<path style="fill:url(#SVGID_00000124145924528444186410000002098090040836097713_);" d="M2999.36,722.56
				c-213.8,0-379.61-142.03-520.19-262.45c-126.94-108.74-236.57-202.66-347.12-167.88c-25.52,8.03-45.23,17.33-63.9,30.14
				c-51.81,35.58-87.23,85.58-108.27,152.86c-18.39,58.8-23.35,121.1-28.15,181.35c-4.99,62.59-9.7,121.7-30.08,162.77
				c-22.49,45.31-61.95,64.46-124.17,60.26c-73.83-5.17-146.98-20.62-217.43-45.95c-118.78-42.7-208.48-130.33-287.63-207.64
				c-100.22-97.9-186.77-182.46-299.96-146.64c-56.56,17.98-105.33,46.83-149.09,88.19c-39.41,37.25-68.95,79.09-92.68,112.7
				c-6.8,9.63-13.65,19.67-20.28,29.38c-58.23,85.31-118.44,173.52-263.38,183.35c-67.17,4.55-135.65,19.85-203.54,45.47
				c-57.72,21.78-116.5,51.6-174.7,88.62c-33.25,21.15-64.28,43.32-92.93,65.36v2.66C95.61,1002.89,257.91,907.84,447.17,895
				c65.3-4.43,119.46-25.43,165.6-64.2c40.77-34.26,70.52-77.86,99.3-120.02c6.62-9.7,13.47-19.74,20.26-29.35
				c47.48-67.26,112.51-159.37,240.74-200.14c112.04-35.45,198.2,48.71,297.95,146.16c79.29,77.46,169.16,165.25,288.35,208.09
				c70.62,25.38,143.96,40.88,217.97,46.06c5.64,0.38,11.08,0.57,16.36,0.57c53.78,0,88.88-19.92,109.73-61.93
				c20.56-41.41,25.28-100.72,30.28-163.5c9.47-118.83,20.2-253.51,135.56-332.72c18.5-12.7,38.04-21.92,63.37-29.88
				c109.49-34.44,218.73,59.14,345.22,167.5c96.22,82.43,205.27,175.85,331.87,225.97c62.8,24.86,125.55,37.32,188.94,37.31
				c7.98,0,15.97-0.2,23.97-0.6V722C3014.82,722.37,3007.06,722.56,2999.36,722.56z"/>
			
				<radialGradient id="SVGID_00000019672827773587708110000013954238178943446423_" cx="1499.2557" cy="801.2263" r="1298.6537" gradientUnits="userSpaceOnUse">
				<stop  offset="0" style="stop-color:#92C0CA"/>
				<stop  offset="0.1816" style="stop-color:#8FBDC7"/>
				<stop  offset="0.3375" style="stop-color:#87B2BD"/>
				<stop  offset="0.484" style="stop-color:#7AA0AC"/>
				<stop  offset="0.6249" style="stop-color:#678794"/>
				<stop  offset="0.7616" style="stop-color:#4E6776"/>
				<stop  offset="0.8934" style="stop-color:#304051"/>
				<stop  offset="1" style="stop-color:#141B2D"/>
			</radialGradient>
			<path style="fill:url(#SVGID_00000019672827773587708110000013954238178943446423_);" d="M2470.93,464.33
				c-123.77-110.08-230.65-205.15-339.55-174.95c-24.83,6.89-45.48,16.21-64.98,29.36c-52.68,35.5-87.82,86.51-107.44,155.94
				c-17.15,60.71-20.24,125.54-23.22,188.25c-4.25,89.2-7.92,166.25-51.55,205.16c-22.47,20.05-54.1,28.41-96.69,25.58
				c-75.94-5.2-149.72-22.14-219.27-50.34c-121.88-49.42-212.85-144.89-293.1-229.12c-100.81-105.8-187.88-197.18-302.36-161.52
				c-57.43,17.95-106.43,47.89-149.8,91.54c-37.4,37.63-65.17,79.47-92.67,122.62c-5.91,9.27-11.87,18.86-17.63,28.12
				c-58.79,94.58-119.59,192.38-270.16,205.99c-131.01,11.84-263.97,63.5-395.18,153.55c-25.14,17.25-49,35.09-71.48,52.95v2.88
				c119.33-94.72,279.98-190.5,466.83-207.39c67.86-6.13,123.71-30.11,170.75-73.31c41.63-38.23,71.78-86.72,100.93-133.61
				c5.76-9.27,11.71-18.85,17.62-28.11c46.3-72.66,109.7-172.16,241.38-213.33c51.86-16.15,100.96-7.47,154.53,27.32
				c48.33,31.39,95.67,81.07,145.79,133.67c80.39,84.37,171.51,180.01,293.8,229.59c69.75,28.28,143.73,45.27,219.89,50.48
				c43.15,2.87,75.26-5.66,98.15-26.08c44.26-39.48,47.94-116.91,52.21-206.56c5.88-123.57,12.55-263.64,129.78-342.63
				c19.32-13.02,39.78-22.26,64.4-29.09c107.84-29.91,214.35,64.82,337.68,174.52c96.19,85.55,205.21,182.52,333.88,236.29
				c67.56,28.23,135.4,42.36,204.38,42.35c4.92,0,9.85-0.08,14.79-0.22v-2.22C2790.6,748.65,2617.16,594.4,2470.93,464.33z"/>
			
				<radialGradient id="SVGID_00000165927536764333472340000006337656146908761239_" cx="1499.2557" cy="819.2981" r="1307.1082" gradientUnits="userSpaceOnUse">
				<stop  offset="0" style="stop-color:#8FC7D1"/>
				<stop  offset="0.179" style="stop-color:#8DC4CE"/>
				<stop  offset="0.3321" style="stop-color:#85B9C4"/>
				<stop  offset="0.4758" style="stop-color:#78A7B3"/>
				<stop  offset="0.6138" style="stop-color:#678F9B"/>
				<stop  offset="0.7477" style="stop-color:#506E7D"/>
				<stop  offset="0.8766" style="stop-color:#344858"/>
				<stop  offset="1" style="stop-color:#141B2D"/>
			</radialGradient>
			<path style="fill:url(#SVGID_00000165927536764333472340000006337656146908761239_);" d="M2462.89,468.3
				c-120.66-111.38-224.86-207.58-332.17-181.76c-24.18,5.82-45.79,15.16-66.06,28.57c-119.9,79.28-122.49,225.25-124.77,354.03
				c-1.64,92.58-3.06,172.54-46.65,212.65c-22,20.24-53.29,28.73-95.7,25.95c-77.45-5.19-151.84-23.61-221.11-54.73
				c-125.03-56.18-217.29-159.56-298.69-250.78c-50.56-56.66-98.32-110.18-147.15-144.32c-54.39-38.03-104.44-48.16-157.5-31.9
				c-58.25,17.91-107.48,48.94-150.51,94.86c-37.94,40.49-66.58,87.69-92.66,132.56c-5.12,8.82-10.3,17.88-15.3,26.64
				C655.3,783.99,593.97,891.44,438,908.93c-138.5,15.53-277.8,74.55-414.04,175.4c-16.7,12.36-32.73,24.89-48.1,37.43v2.11
				c118.55-97.27,275.63-192,462.36-212.95c156.98-17.61,218.57-125.5,278.12-229.85c5-8.76,10.17-17.82,15.29-26.63
				c56.73-97.6,117.93-188.37,242.03-226.52c52.43-16.07,101.92-6.02,155.77,31.62c48.64,34,96.32,87.44,146.8,144.01
				c81.53,91.36,173.94,194.91,299.36,251.27c69.49,31.22,144.11,49.7,221.8,54.91c42.98,2.81,74.77-5.84,97.19-26.47
				c44.22-40.69,45.64-121.04,47.29-214.09c2.27-128.29,4.85-273.7,123.88-352.4c20.07-13.27,41.48-22.53,65.43-28.29
				c106.26-25.56,210.1,70.29,330.34,181.29c147.02,135.72,321.44,296.71,561.12,294.33v-2.05
				C2783.64,764.37,2609.6,603.72,2462.89,468.3z"/>
			
				<radialGradient id="SVGID_00000145042938824432722590000007936290908200293295_" cx="1499.2557" cy="837.3709" r="1315.712" gradientUnits="userSpaceOnUse">
				<stop  offset="0" style="stop-color:#8CCDD8"/>
				<stop  offset="0.177" style="stop-color:#8ACAD5"/>
				<stop  offset="0.3279" style="stop-color:#83BFCB"/>
				<stop  offset="0.4693" style="stop-color:#77AEBA"/>
				<stop  offset="0.6049" style="stop-color:#6695A2"/>
				<stop  offset="0.7365" style="stop-color:#507583"/>
				<stop  offset="0.8648" style="stop-color:#364D5D"/>
				<stop  offset="0.9885" style="stop-color:#172031"/>
				<stop  offset="1" style="stop-color:#141B2D"/>
			</radialGradient>
			<path style="fill:url(#SVGID_00000145042938824432722590000007936290908200293295_);" d="M2455.08,472.04
				c-58.62-56.14-114-109.17-167.13-144.75c-59.21-39.65-109.38-53.5-157.89-43.59c-23.77,4.85-45.74,13.94-67.15,27.78
				c-121.47,79.17-119.98,230.38-118.65,363.79c0.95,96.02,1.77,178.95-41.83,220.24c-21.57,20.42-52.59,29.03-94.86,26.29
				c-78.55-5.15-153.57-25.05-222.96-59.13c-128.22-62.98-221.8-174.35-304.37-272.62c-50.91-60.59-98.99-117.82-148.11-154.54
				c-54.67-40.87-105.11-52.37-158.74-36.19c-59.02,17.85-108.49,49.96-151.21,98.17c-38.24,43.15-66.74,94.07-92.65,142.52
				c-4.43,8.29-8.91,16.78-13.24,24.98c-59.78,113.29-121.6,230.44-282.8,251.91c-147.25,19.61-293.86,87.14-435.75,200.72
				c-7.42,5.94-14.71,11.92-21.87,17.91v2.9c118.26-99.15,274.46-195.13,457.88-219.55c162.23-21.6,224.29-139.21,284.3-252.95
				c4.33-8.21,8.81-16.69,13.24-24.97c55.92-104.56,116.56-201.58,242.68-239.71c52.97-15.98,102.85-4.59,156.97,35.88
				c48.93,36.58,96.94,93.73,147.77,154.22c82.69,98.42,176.42,209.96,305.02,273.13c69.63,34.2,144.89,54.16,223.71,59.33
				c42.84,2.77,74.37-6.01,96.37-26.84c20.25-19.17,32.38-48.15,38.2-91.21c5.17-38.3,4.73-83.08,4.26-130.5
				c-1.32-132.9-2.81-283.52,117.74-362.09c21.19-13.7,42.93-22.69,66.46-27.5c104.77-21.4,206.01,75.56,323.24,187.82
				c147.38,141.14,322.25,308.61,568.96,310.61v-2.05C2776.64,779.98,2602.13,612.87,2455.08,472.04z"/>
			
				<radialGradient id="SVGID_00000131360189039519438680000011561114219410899114_" cx="1499.2557" cy="855.5048" r="1324.4611" gradientUnits="userSpaceOnUse">
				<stop  offset="0" style="stop-color:#8AD4DE"/>
				<stop  offset="0.1748" style="stop-color:#88D1DB"/>
				<stop  offset="0.3232" style="stop-color:#81C6D1"/>
				<stop  offset="0.462" style="stop-color:#76B5C0"/>
				<stop  offset="0.595" style="stop-color:#669CA8"/>
				<stop  offset="0.724" style="stop-color:#527C8A"/>
				<stop  offset="0.8497" style="stop-color:#395564"/>
				<stop  offset="0.9708" style="stop-color:#1C2739"/>
				<stop  offset="1" style="stop-color:#141B2D"/>
			</radialGradient>
			<path style="fill:url(#SVGID_00000131360189039519438680000011561114219410899114_);" d="M2447.53,475.58
				c-57.21-56.83-111.25-110.5-163.19-146.98c-57.84-40.63-107.07-55.8-154.95-47.74c-23.59,3.97-45.91,12.8-68.23,26.99
				c-123.28,78.71-117.62,235.26-112.62,373.38c1.77,49.05,3.45,95.39-0.8,134.92c-4.75,44.14-16.23,73.73-36.15,93.11
				c-21.16,20.59-51.9,29.29-94,26.61c-79.4-5.09-155.04-26.47-224.81-63.52c-131.45-69.81-226.37-189.26-310.12-294.64
				c-51.24-64.47-99.63-125.36-149.02-164.64c-54.94-43.68-105.76-56.52-159.94-40.42c-59.77,17.78-109.46,50.96-151.92,101.46
				c-38.37,45.65-66.8,100.36-92.64,152.48c-3.82,7.71-7.62,15.44-11.42,23.19c-60.22,122.71-122.49,249.59-288.76,275.1
				c-154.87,23.75-307.25,99.06-453.1,223.87v3.14c175.36-150.75,335.58-206.96,453.41-225.03c40.19-6.16,75.31-18.11,107.37-36.51
				c28.53-16.38,53.94-37.52,77.66-64.64c43.99-50.28,75.12-113.71,105.22-175.04c3.8-7.74,7.59-15.48,11.41-23.18
				c57.42-115.85,115.36-214.85,243.33-252.91c53.5-15.9,103.75-3.16,158.13,40.07c49.22,39.13,97.54,99.94,148.7,164.32
				c83.87,105.54,178.93,225.15,310.75,295.16c70.02,37.19,145.93,58.64,225.62,63.75c42.7,2.72,73.94-6.17,95.52-27.17
				c20.27-19.72,31.95-49.69,36.74-94.33c4.27-39.68,2.59-86.08,0.81-135.21c-4.98-137.58-10.62-293.52,111.7-371.62
				c22.09-14.04,44.17-22.78,67.49-26.7c47.32-7.96,96.08,7.1,153.47,47.41c51.8,36.38,105.78,90,162.93,146.76
				c95.72,95.07,204.2,202.82,338.75,267.76c77.18,37.25,156.06,56.95,237.78,59.14V802
				C2769.61,795.47,2594.81,621.86,2447.53,475.58z"/>
			
				<radialGradient id="SVGID_00000125600118143226200960000009089735839578686110_" cx="1499.2557" cy="873.1635" r="1333.6699" gradientUnits="userSpaceOnUse">
				<stop  offset="0" style="stop-color:#87DAE5"/>
				<stop  offset="0.1731" style="stop-color:#85D7E2"/>
				<stop  offset="0.3195" style="stop-color:#7FCCD8"/>
				<stop  offset="0.4562" style="stop-color:#74BBC7"/>
				<stop  offset="0.5871" style="stop-color:#65A2AF"/>
				<stop  offset="0.7139" style="stop-color:#528290"/>
				<stop  offset="0.8375" style="stop-color:#3B5B6B"/>
				<stop  offset="0.9564" style="stop-color:#1F2E3F"/>
				<stop  offset="1" style="stop-color:#141B2D"/>
			</radialGradient>
			<path style="fill:url(#SVGID_00000125600118143226200960000009089735839578686110_);" d="M2440.99,478.26
				c-67.54-69.54-131.33-135.23-192.9-171.5c-68.39-40.28-128.51-41.36-189.2-3.4c-125.53,78.52-115.68,240.68-106.98,383.76
				c3.08,50.76,6,98.71,2.66,139.58c-3.72,45.48-14.66,75.86-34.44,95.61c-20.56,20.52-50.78,29.23-92.44,26.61
				c-264.3-16.57-418.2-220.5-541.86-384.35c-51.59-68.35-100.31-132.92-150.06-174.78c-55.48-46.68-106.97-60.91-162.04-44.8
				c-34.18,10-64.27,24.84-92.01,45.38c-24.69,18.29-46.92,40.69-67.96,68.51c-38.99,51.56-67.82,114.38-95.69,175.13
				c-60.52,131.91-123.1,268.32-293.78,297.83c-100.22,17.33-200.11,56.34-296.88,115.96c-51.52,31.74-102.24,69.34-151.54,112.28
				v5.42c111.51-97.4,265.56-197.98,449.1-229.72c41.52-7.18,77.7-20.46,110.6-40.59c29.31-17.94,55.31-40.93,79.49-70.3
				c44.8-54.42,76.24-122.95,106.65-189.21c55.44-120.83,112.76-245.78,253.14-286.85c53.67-15.7,103.98-1.71,158.34,44.02
				c49.41,41.57,98,105.96,149.45,174.13c62.19,82.4,132.67,175.8,219.77,249.28c100.19,84.52,206.51,129.22,325.03,136.66
				c42.85,2.68,74.1-6.4,95.52-27.78c20.49-20.45,31.8-51.63,35.6-98.11c3.36-41.16,0.44-89.24-2.65-140.15
				c-8.63-141.96-18.4-302.87,105.11-380.13c59.28-37.08,118.09-35.98,185.05,3.46c61.11,35.99,121.79,98.48,192.06,170.84
				c95.48,98.32,203.7,209.76,340.22,278.56c78.84,39.73,159.87,61.43,244.31,65.14v-3.84
				C2762.95,809.8,2588.19,629.84,2440.99,478.26z"/>
		</g>
	</g>
</g>
</svg>
